<?xml version="1.0" standalone="no"?><!DOCTYPE svg PUBLIC "-//W3C//DTD SVG 1.1//EN" "http://www.w3.org/Graphics/SVG/1.1/DTD/svg11.dtd"><svg t="1529552325545" class="icon" style="" viewBox="0 0 1025 1024" version="1.1" xmlns="http://www.w3.org/2000/svg" p-id="3719" xmlns:xlink="http://www.w3.org/1999/xlink" width="200.1953125" height="200"><defs><style type="text/css"></style></defs><path d="M577.073947 51.109841l40.215152-40.215152C453.821954-23.316117 276.856669 23.043016 149.974143 149.972088-27.503141 327.449372-47.471081 602.764906 90.116868 802.258123l-71.81942 71.772875 181.014727 16.477041-16.430496-181.014727-59.252185 59.252185C3.914946 588.010041 23.65016 342.111146 182.88168 182.879625 290.354811 75.406495 437.344913 31.467718 577.073947 51.109841z" p-id="3720" fill="#e6e6e6"></path><path d="M972.802209 117.064551 791.740936 100.58751l16.477041 181.014727 64.185988-64.185988c149.782821 182.829995 139.356671 453.072089-31.278451 623.707212-121.39018 121.39018-293.188935 161.744967-448.045195 120.971272l-37.515523 37.515523c176.779104 56.552557 378.227224 14.708319 518.514801-125.579258 188.83434-188.83434 199.307036-488.539619 31.418087-689.708467L972.802209 117.064551z" p-id="3721" fill="#e6e6e6"></path></svg>